<?xml version="1.0" encoding="UTF-8" standalone="no"?>
<!-- Created with Inkscape (http://www.inkscape.org/) -->

<svg
   width="96.897743mm"
   height="31.996407mm"
   viewBox="0 0 96.897743 31.996407"
   version="1.1"
   id="svg5"
   inkscape:version="1.1.1 (3bf5ae0d25, 2021-09-20)"
   sodipodi:docname="logo-small.svg"
   xmlns:inkscape="http://www.inkscape.org/namespaces/inkscape"
   xmlns:sodipodi="http://sodipodi.sourceforge.net/DTD/sodipodi-0.dtd"
   xmlns:xlink="http://www.w3.org/1999/xlink"
   xmlns="http://www.w3.org/2000/svg"
   xmlns:svg="http://www.w3.org/2000/svg"
   xmlns:rdf="http://www.w3.org/1999/02/22-rdf-syntax-ns#"
   xmlns:cc="http://creativecommons.org/ns#"
   xmlns:dc="http://purl.org/dc/elements/1.1/">
  <title
     id="title16687">WYUG logo</title>
  <sodipodi:namedview
     id="namedview7"
     pagecolor="#ffffff"
     bordercolor="#666666"
     borderopacity="1.0"
     inkscape:pageshadow="2"
     inkscape:pageopacity="0.0"
     inkscape:pagecheckerboard="0"
     inkscape:document-units="mm"
     showgrid="false"
     inkscape:zoom="0.6627946"
     inkscape:cx="471.48845"
     inkscape:cy="0"
     inkscape:window-width="1482"
     inkscape:window-height="920"
     inkscape:window-x="1"
     inkscape:window-y="0"
     inkscape:window-maximized="0"
     inkscape:current-layer="layer1"
     fit-margin-top="0"
     fit-margin-left="0"
     fit-margin-right="0"
     fit-margin-bottom="0" />
  <defs
     id="defs2">
    <linearGradient
       inkscape:collect="always"
       id="linearGradient16561">
      <stop
         style="stop-color:#6ace87;stop-opacity:1"
         offset="0"
         id="stop16565" />
      <stop
         style="stop-color:#025e6c;stop-opacity:1"
         offset="1"
         id="stop16567" />
    </linearGradient>
    <linearGradient
       id="linearGradient16535"
       inkscape:swatch="solid">
      <stop
         style="stop-color:#000000;stop-opacity:1;"
         offset="0"
         id="stop16533" />
    </linearGradient>
    <rect
       x="107.12217"
       y="209.71806"
       width="273.08612"
       height="144.84125"
       id="rect1970" />
    <inkscape:path-effect
       effect="fill_between_many"
       method="originald"
       linkedpaths="#path7156,0,1"
       id="path-effect7505"
       is_visible="true"
       lpeversion="0"
       join="true"
       close="true"
       autoreverse="true"
       applied="false" />
    <rect
       x="107.12217"
       y="209.71806"
       width="273.08612"
       height="144.84125"
       id="rect1970-0" />
    <rect
       x="107.12217"
       y="209.71806"
       width="273.08612"
       height="144.84125"
       id="rect1970-0-6" />
    <linearGradient
       inkscape:collect="always"
       xlink:href="#linearGradient16561"
       id="linearGradient16563"
       x1="66.073219"
       y1="182.91177"
       x2="125.18723"
       y2="130.90701"
       gradientUnits="userSpaceOnUse"
       gradientTransform="matrix(0.43153323,0,0,0.4473985,24.136486,68.512986)" />
    <rect
       x="107.12217"
       y="209.71806"
       width="273.08612"
       height="144.84125"
       id="rect1970-3" />
    <rect
       x="107.12217"
       y="209.71806"
       width="273.08612"
       height="144.84125"
       id="rect1970-0-4" />
    <rect
       x="107.12217"
       y="209.71806"
       width="273.08612"
       height="144.84125"
       id="rect1970-0-6-1" />
    <rect
       x="107.12217"
       y="209.71806"
       width="273.08612"
       height="144.84125"
       id="rect1970-1" />
    <rect
       x="107.12217"
       y="209.71806"
       width="273.08612"
       height="144.84125"
       id="rect1970-0-2" />
    <rect
       x="107.12217"
       y="209.71806"
       width="273.08612"
       height="144.84125"
       id="rect1970-0-6-8" />
    <rect
       x="107.12217"
       y="209.71806"
       width="273.08612"
       height="144.84125"
       id="rect1970-6" />
    <rect
       x="107.12217"
       y="209.71806"
       width="273.08612"
       height="144.84125"
       id="rect1970-0-44" />
    <rect
       x="107.12217"
       y="209.71806"
       width="273.08612"
       height="144.84125"
       id="rect1970-0-6-6" />
  </defs>
  <g
     inkscape:label="Layer 1"
     inkscape:groupmode="layer"
     id="layer1"
     transform="translate(-51.95167,-118.36052)">
    <path
       d="m 64.901956,149.7064 c -0.624548,-1.1539 -2.467153,0.19518 -2.509961,-1.63226 -1.392918,-0.82262 -2.257585,-2.51433 -3.332738,-3.80052 -1.180035,-1.01361 -1.966979,-2.48905 -1.756265,-4.13988 -0.393184,-1.2018 -1.094957,-1.82691 -1.923568,-0.53091 -1.109806,0.29508 -1.694487,-0.87194 -2.442709,-0.92838 -0.251865,-1.30266 -2.098822,-3.224 0.02349,-4.11558 1.210151,-1.53279 -0.153866,-3.70521 1.454202,-5.00766 1.306744,-1.04994 2.963696,-1.53292 2.840448,-3.50288 0.441517,-0.53938 0.690651,-1.55711 1.551125,-1.16523 1.453865,0.49246 1.044928,-1.32594 1.117409,-2.2318 2.192588,0.0899 -0.93998,-1.65117 0.452244,-2.1407 -0.568503,-1.2587 0.657249,-2.10598 1.7151,-1.56993 1.062439,-0.35457 2.331837,-1.32578 2.279095,0.47942 0.428283,0.43185 0.814769,1.57171 1.034757,0.43491 1.856499,-0.49332 2.532439,1.32277 4.259047,1.43627 0.564531,1.64613 1.801201,-0.95271 2.603899,0.63701 1.21752,-0.14061 2.171171,0.9347 3.390789,0.17022 0.198033,0.80862 1.252922,-0.59797 1.73965,0.30033 0.973154,-0.89442 2.859943,-0.72514 4.065642,-0.17909 1.067445,-0.32192 0.810575,-1.74892 1.890537,-1.76402 0.476151,-1.35502 2.717287,-0.94852 3.504178,-0.4298 1.60997,0.12058 1.675059,2.38468 0.327347,2.97464 0.128841,1.26118 0.688247,2.79505 -0.928315,3.09549 0.502469,1.0807 0.662728,1.9953 1.538274,2.94277 -0.31517,0.74831 -0.796825,2.0912 -0.0066,2.7019 0.938774,0.63384 0.589762,1.7684 -0.314712,2.02112 1.257169,0.93166 1.823522,3.06227 3.715541,2.51772 1.190494,0.79744 1.148407,1.92637 -0.485404,1.67084 -0.822411,0.37453 -0.29222,2.27931 -0.752249,3.19295 0.142761,0.95049 1.540582,2.10984 0.278038,2.55556 -0.07733,1.53818 -1.615055,2.35937 -2.889525,2.58987 -0.654969,-0.28683 -1.843681,-0.0925 -1.908639,-1.06566 -0.20671,-1.76977 -1.404465,-0.0894 -2.145993,-0.67848 -1.217271,-1.08128 -2.038017,-0.25729 -3.080468,0.46198 -1.121512,-0.54812 -2.191972,0.48961 -3.072368,-0.7887 -1.633064,-0.4909 -0.84215,2.2159 -2.051361,2.7649 -1.231492,0.53541 -3.06276,1.36825 -4.407458,0.65125 -0.498131,2.1403 -3.098988,1.04176 -3.990197,2.39745 -0.528369,0.55251 -1.433825,0.37337 -1.782445,-0.32512 z"
       id="path7507"
       style="fill:url(#linearGradient16563);fill-opacity:1;stroke-width:0.746971;stroke-miterlimit:4;stroke-dasharray:none"
       inkscape:export-filename="C:\src\WYUG\logo-small.png"
       inkscape:export-xdpi="54.720001"
       inkscape:export-ydpi="54.720001" />
    <text
       xml:space="preserve"
       transform="matrix(0.28189113,0,0,0.28189113,26.272726,63.371614)"
       id="text1968"
       style="font-style:normal;font-weight:normal;font-size:74.6667px;line-height:1.25;font-family:sans-serif;white-space:pre;shape-inside:url(#rect1970);fill:#ffffff;fill-opacity:1;stroke:none"
       inkscape:export-filename="C:\src\WYUG\logo-small.png"
       inkscape:export-xdpi="54.720001"
       inkscape:export-ydpi="54.720001"><tspan
         x="107.12305"
         y="275.78128"
         id="tspan6593"><tspan
           style="font-weight:bold;font-family:Calibri;-inkscape-font-specification:'Calibri Bold'"
           id="tspan6591">WY</tspan></tspan></text>
    <text
       xml:space="preserve"
       transform="matrix(0.48310345,0,0,0.48310345,41.273003,24.26966)"
       id="text1968-1"
       style="font-style:normal;font-weight:normal;font-size:16.0651px;line-height:1.25;font-family:sans-serif;letter-spacing:-0.711977px;white-space:pre;shape-inside:url(#rect1970-0);fill:#000000;fill-opacity:1;stroke:none"
       inkscape:export-filename="C:\src\WYUG\logo-small.png"
       inkscape:export-xdpi="54.720001"
       inkscape:export-ydpi="54.720001"><tspan
         x="107.12305"
         y="223.9326"
         id="tspan6599"><tspan
   style="font-weight:bold"
   id="tspan6595">P</tspan>ower <tspan
   style="font-weight:bold"
   id="tspan6597">P</tspan>latform</tspan></text>
    <text
       xml:space="preserve"
       transform="matrix(0.48310345,0,0,0.48310345,41.360164,33.630101)"
       id="text1968-1-8"
       style="font-style:normal;font-weight:normal;font-size:16.0651px;line-height:1.25;font-family:sans-serif;letter-spacing:-0.711977px;white-space:pre;shape-inside:url(#rect1970-0-6);fill:#000000;fill-opacity:1;stroke:none"
       inkscape:export-filename="C:\src\WYUG\logo-small.png"
       inkscape:export-xdpi="54.720001"
       inkscape:export-ydpi="54.720001"><tspan
         x="107.12305"
         y="223.9326"
         id="tspan6605"><tspan
   style="font-weight:bold"
   id="tspan6601">U</tspan>ser <tspan
   style="font-weight:bold"
   id="tspan6603">G</tspan>roup</tspan></text>
  </g>
  <metadata
     id="metadata16685">
    <rdf:RDF>
      <cc:Work
         rdf:about="">
        <dc:title>WYUG logo</dc:title>
      </cc:Work>
    </rdf:RDF>
  </metadata>
</svg>
