<?xml version="1.0" encoding="UTF-8" standalone="no"?>
<!-- Created with Inkscape (http://www.inkscape.org/) -->

<svg
   width="92.841141mm"
   height="71.516571mm"
   viewBox="0 0 92.841141 71.516571"
   version="1.1"
   id="svg5"
   inkscape:version="1.1.1 (3bf5ae0d25, 2021-09-20)"
   sodipodi:docname="logo.svg"
   xmlns:inkscape="http://www.inkscape.org/namespaces/inkscape"
   xmlns:sodipodi="http://sodipodi.sourceforge.net/DTD/sodipodi-0.dtd"
   xmlns:xlink="http://www.w3.org/1999/xlink"
   xmlns="http://www.w3.org/2000/svg"
   xmlns:svg="http://www.w3.org/2000/svg"
   xmlns:rdf="http://www.w3.org/1999/02/22-rdf-syntax-ns#"
   xmlns:cc="http://creativecommons.org/ns#"
   xmlns:dc="http://purl.org/dc/elements/1.1/">
  <title
     id="title16687">WYUG logo</title>
  <sodipodi:namedview
     id="namedview7"
     pagecolor="#ffffff"
     bordercolor="#666666"
     borderopacity="1.0"
     inkscape:pageshadow="2"
     inkscape:pageopacity="0.0"
     inkscape:pagecheckerboard="0"
     inkscape:document-units="mm"
     showgrid="false"
     inkscape:zoom="0.3313973"
     inkscape:cx="-242.91085"
     inkscape:cy="171.99899"
     inkscape:window-width="1482"
     inkscape:window-height="920"
     inkscape:window-x="1"
     inkscape:window-y="0"
     inkscape:window-maximized="0"
     inkscape:current-layer="layer1"
     fit-margin-top="0"
     fit-margin-left="0"
     fit-margin-right="0"
     fit-margin-bottom="0" />
  <defs
     id="defs2">
    <linearGradient
       inkscape:collect="always"
       id="linearGradient16561">
      <stop
         style="stop-color:#6ace87;stop-opacity:1"
         offset="0"
         id="stop16565" />
      <stop
         style="stop-color:#025e6c;stop-opacity:1"
         offset="1"
         id="stop16567" />
    </linearGradient>
    <linearGradient
       id="linearGradient16535"
       inkscape:swatch="solid">
      <stop
         style="stop-color:#000000;stop-opacity:1;"
         offset="0"
         id="stop16533" />
    </linearGradient>
    <rect
       x="107.12217"
       y="209.71806"
       width="273.08612"
       height="144.84125"
       id="rect1970" />
    <inkscape:path-effect
       effect="fill_between_many"
       method="originald"
       linkedpaths="#path7156,0,1"
       id="path-effect7505"
       is_visible="true"
       lpeversion="0"
       join="true"
       close="true"
       autoreverse="true"
       applied="false" />
    <rect
       x="107.12217"
       y="209.71806"
       width="273.08612"
       height="144.84125"
       id="rect1970-0" />
    <rect
       x="107.12217"
       y="209.71806"
       width="273.08612"
       height="144.84125"
       id="rect1970-0-6" />
    <linearGradient
       inkscape:collect="always"
       xlink:href="#linearGradient16561"
       id="linearGradient16563"
       x1="66.073219"
       y1="182.91177"
       x2="125.18723"
       y2="130.90701"
       gradientUnits="userSpaceOnUse" />
    <rect
       x="107.12217"
       y="209.71806"
       width="273.08612"
       height="144.84125"
       id="rect1970-3" />
    <rect
       x="107.12217"
       y="209.71806"
       width="273.08612"
       height="144.84125"
       id="rect1970-0-4" />
    <rect
       x="107.12217"
       y="209.71806"
       width="273.08612"
       height="144.84125"
       id="rect1970-0-6-1" />
    <rect
       x="107.12217"
       y="209.71806"
       width="273.08612"
       height="144.84125"
       id="rect1970-1" />
    <rect
       x="107.12217"
       y="209.71806"
       width="273.08612"
       height="144.84125"
       id="rect1970-0-2" />
    <rect
       x="107.12217"
       y="209.71806"
       width="273.08612"
       height="144.84125"
       id="rect1970-0-6-8" />
    <rect
       x="107.12217"
       y="209.71806"
       width="273.08612"
       height="144.84125"
       id="rect1970-6" />
    <rect
       x="107.12217"
       y="209.71806"
       width="273.08612"
       height="144.84125"
       id="rect1970-0-44" />
    <rect
       x="107.12217"
       y="209.71806"
       width="273.08612"
       height="144.84125"
       id="rect1970-0-6-6" />
  </defs>
  <g
     inkscape:label="Layer 1"
     inkscape:groupmode="layer"
     id="layer1"
     transform="translate(-64.456644,-111.41646)">
    <path
       d="m 94.466582,181.47901 c -1.447274,-2.57912 -5.717179,0.43624 -5.816383,-3.64834 -3.227816,-1.83869 -5.231535,-5.61989 -7.723001,-8.49471 -2.734526,-2.26556 -4.558127,-5.56339 -4.069836,-9.2532 -0.911134,-2.68623 -2.537366,-4.08343 -4.457522,-1.18669 -2.571775,0.65956 -3.926664,-1.94891 -5.660534,-2.07505 -0.583652,-2.91163 -4.863641,-7.20611 0.05444,-9.1989 2.804309,-3.42604 -0.356554,-8.28169 3.369851,-11.19287 3.028143,-2.34674 6.867828,-3.42629 6.582223,-7.82945 1.023135,-1.20557 1.600452,-3.48034 3.594423,-2.60442 3.369087,1.1007 2.421457,-2.96369 2.589412,-4.98842 5.080911,0.20103 -2.17823,-3.69058 1.047981,-4.78476 -1.317402,-2.81338 1.523054,-4.70715 3.974437,-3.509 2.462003,-0.79254 5.403624,-2.96334 5.281395,1.07155 0.992465,0.96523 1.888087,3.51299 2.39785,0.9721 4.302121,-1.10264 5.868482,2.95658 9.869592,3.21025 1.3082,3.67934 4.17394,-2.12943 6.03404,1.42382 2.82141,-0.31428 5.03131,2.08917 7.85756,0.38046 0.45891,1.8074 2.9034,-1.33654 4.03133,0.67128 2.25508,-1.99916 6.62738,-1.62078 9.42138,-0.40029 2.47359,-0.71954 1.87836,-3.90907 4.38098,-3.94284 1.10339,-3.02867 6.29681,-2.12009 8.1203,-0.96067 3.7308,0.26955 3.88164,5.33011 0.75854,6.64875 0.29849,2.81894 1.59491,6.24734 -2.15118,6.91887 1.16436,2.41551 1.53575,4.4598 3.56465,6.5775 -0.73034,1.67261 -1.8465,4.67416 -0.0149,6.03914 2.17544,1.41671 1.36666,3.95264 -0.7293,4.51749 2.91327,2.0824 4.2257,6.84464 8.6101,5.62749 2.75876,1.78239 2.66122,4.30571 -1.12483,3.73454 -1.9058,0.83715 -0.67716,5.0946 -1.7432,7.13673 0.33083,2.12448 3.57003,4.71578 0.6443,5.71203 -0.17912,3.43807 -3.74258,5.27355 -6.69594,5.78873 -1.51777,-0.6411 -4.27239,-0.20676 -4.42293,-2.38191 -0.47901,-3.95568 -3.2546,-0.19975 -4.97295,-1.5165 -2.82082,-2.41681 -4.72274,-0.57506 -7.13844,1.03261 -2.5989,-1.22515 -5.0795,1.09434 -7.11965,-1.76288 -3.78433,-1.09721 -1.95152,4.95288 -4.75364,6.17998 -2.85377,1.19671 -7.09739,3.05823 -10.21348,1.45563 -1.15433,4.78388 -7.18135,2.32847 -9.246586,5.35863 -1.224386,1.23495 -3.322621,0.83453 -4.130495,-0.72668 z"
       id="path7507"
       style="fill:url(#linearGradient16563);fill-opacity:1;stroke-width:1.7;stroke-miterlimit:4;stroke-dasharray:none"
       inkscape:export-filename="C:\src\WYUG\logo-small.png"
       inkscape:export-xdpi="54.720001"
       inkscape:export-ydpi="54.720001" />
    <text
       xml:space="preserve"
       transform="matrix(0.48310345,0,0,0.48310345,32.748051,13.564964)"
       id="text1968"
       style="font-style:normal;font-weight:normal;font-size:74.6667px;line-height:1.25;font-family:sans-serif;white-space:pre;shape-inside:url(#rect1970);fill:#ffffff;fill-opacity:1;stroke:none"
       inkscape:export-filename="C:\src\WYUG\logo-small.png"
       inkscape:export-xdpi="54.720001"
       inkscape:export-ydpi="54.720001"><tspan
         x="107.12305"
         y="275.78128"
         id="tspan6393"><tspan
           style="font-weight:bold;font-family:Calibri;-inkscape-font-specification:'Calibri Bold'"
           id="tspan6391">WY</tspan></tspan></text>
    <text
       xml:space="preserve"
       transform="matrix(0.48310345,0,0,0.48310345,32.759965,47.28364)"
       id="text1968-1"
       style="font-style:normal;font-weight:normal;font-size:16.0651px;line-height:1.25;font-family:sans-serif;white-space:pre;shape-inside:url(#rect1970-0);fill:#ffffff;fill-opacity:1;stroke:none"
       inkscape:export-filename="C:\src\WYUG\logo-small.png"
       inkscape:export-xdpi="54.720001"
       inkscape:export-ydpi="54.720001"><tspan
         x="107.12305"
         y="223.9326"
         id="tspan6399"><tspan
   style="font-weight:bold"
   id="tspan6395">P</tspan>ower <tspan
   style="font-weight:bold"
   id="tspan6397">P</tspan>latform</tspan></text>
    <text
       xml:space="preserve"
       transform="matrix(0.48310345,0,0,0.48310345,32.847126,56.644081)"
       id="text1968-1-8"
       style="font-style:normal;font-weight:normal;font-size:16.0651px;line-height:1.25;font-family:sans-serif;white-space:pre;shape-inside:url(#rect1970-0-6);fill:#ffffff;fill-opacity:1;stroke:none"
       inkscape:export-filename="C:\src\WYUG\logo-small.png"
       inkscape:export-xdpi="54.720001"
       inkscape:export-ydpi="54.720001"><tspan
         x="107.12305"
         y="223.9326"
         id="tspan6405"><tspan
   style="font-weight:bold"
   id="tspan6401">U</tspan>ser <tspan
   style="font-weight:bold"
   id="tspan6403">G</tspan>roup</tspan></text>
  </g>
  <metadata
     id="metadata16685">
    <rdf:RDF>
      <cc:Work
         rdf:about="">
        <dc:title>WYUG logo</dc:title>
      </cc:Work>
    </rdf:RDF>
  </metadata>
</svg>
